<svg id="svg" fill="#cccccc" stroke="#cccccc" width="200" height="200" version="1.1" viewBox="144 144 512 512" xmlns="http://www.w3.org/2000/svg">
    <g id="IconSvg_bgCarrier" stroke-width="0"></g>
    <g id="IconSvg_tracerCarrier" stroke-linecap="round" stroke-linejoin="round" stroke="#CCCCCC" stroke-width="0">
      <path xmlns="http://www.w3.org/2000/svg" d="m546.94 358.02h-293.89c-4.1445-0.023437-8.1914-1.2695-11.629-3.5859-3.4336-2.3164-6.1094-5.5977-7.6836-9.4297-1.6094-3.8242-2.0469-8.0352-1.2617-12.109 0.78516-4.0703 2.7578-7.8203 5.668-10.773l146.95-146.95c3.9414-3.9727 9.3086-6.207 14.906-6.207s10.961 2.2344 14.902 6.207l146.95 146.95c2.9141 2.9531 4.8867 6.7031 5.6719 10.773 0.78125 4.0742 0.34375 8.2852-1.2656 12.109-1.5742 3.832-4.2461 7.1133-7.6836 9.4297-3.4375 2.3164-7.4844 3.5625-11.629 3.5859zm-243.3-41.984h192.71l-96.352-96.355zm96.355 314.88c-5.582 0.035156-10.945-2.1562-14.906-6.0859l-146.95-146.95c-2.9102-2.9531-4.8828-6.6992-5.668-10.773-0.78516-4.0703-0.34766-8.2852 1.2617-12.109 1.5742-3.832 4.25-7.1133 7.6836-9.4297 3.4375-2.3164 7.4844-3.5625 11.629-3.582h293.89c4.1445 0.019531 8.1914 1.2656 11.629 3.582s6.1094 5.5977 7.6836 9.4297c1.6094 3.8242 2.0469 8.0391 1.2656 12.109-0.78516 4.0742-2.7578 7.8203-5.6719 10.773l-146.95 146.95c-3.9609 3.9297-9.3242 6.1211-14.902 6.0859zm-96.355-146.95 96.355 96.355 96.352-96.355z"></path>

      </g>
     <g id="IconSvg_iconCarrier">
      <path xmlns="http://www.w3.org/2000/svg" d="m546.94 358.02h-293.89c-4.1445-0.023437-8.1914-1.2695-11.629-3.5859-3.4336-2.3164-6.1094-5.5977-7.6836-9.4297-1.6094-3.8242-2.0469-8.0352-1.2617-12.109 0.78516-4.0703 2.7578-7.8203 5.668-10.773l146.95-146.95c3.9414-3.9727 9.3086-6.207 14.906-6.207s10.961 2.2344 14.902 6.207l146.95 146.95c2.9141 2.9531 4.8867 6.7031 5.6719 10.773 0.78125 4.0742 0.34375 8.2852-1.2656 12.109-1.5742 3.832-4.2461 7.1133-7.6836 9.4297-3.4375 2.3164-7.4844 3.5625-11.629 3.5859zm-243.3-41.984h192.71l-96.352-96.355zm96.355 314.88c-5.582 0.035156-10.945-2.1562-14.906-6.0859l-146.95-146.95c-2.9102-2.9531-4.8828-6.6992-5.668-10.773-0.78516-4.0703-0.34766-8.2852 1.2617-12.109 1.5742-3.832 4.25-7.1133 7.6836-9.4297 3.4375-2.3164 7.4844-3.5625 11.629-3.582h293.89c4.1445 0.019531 8.1914 1.2656 11.629 3.582s6.1094 5.5977 7.6836 9.4297c1.6094 3.8242 2.0469 8.0391 1.2656 12.109-0.78516 4.0742-2.7578 7.8203-5.6719 10.773l-146.95 146.95c-3.9609 3.9297-9.3242 6.1211-14.902 6.0859zm-96.355-146.95 96.355 96.355 96.352-96.355z"></path>

      </g>
      </svg>